[img]http://i.imgur.com/vIzxc.jpg[/img]

[code]

House.At.The.End.Of.The.Street.2012.720p.BDRip.XViD.AC3-26k
 
http://www.imdb.com/title/tt1582507/

Plot:

A mother and daughter move to a new town and find themselves living next door to a house where a young girl murdered 
her parents. When the daughter befriends the surviving son, she learns the story is far from over.



Sources - VIDEO: House.at.the.End.of.the.Street.BD25.2012.BluRay.1080p.AVC.DTS-HD.MA5.1.iPlanet ..... thanks .... :P
          AUDIO: House.at.the.End.of.the.Street.BD25.2012.BluRay.1080p.AVC.DTS-HD.MA5.1.iPlanet ..... thanks .... :P

Format                                   : AVI
Format/Info                              : Audio Video Interleave
Format profile                           : OpenDML
File size                                : 2.95 GiB
Duration                                 : 1h 41mn
Overall bit rate                         : 4 150 Kbps
Writing library                          : VirtualDub build 32839/release

Video
ID                                       : 0
Format                                   : MPEG-4 Visual
Format profile                           : Advanced Simple@L5
Format settings, BVOP                    : 2
Format settings, QPel                    : No
Format settings, GMC                     : No warppoints
Format settings, Matrix                  : Default (H.263)
Codec ID                                 : XVID
Codec ID/Hint                            : XviD
Duration                                 : 1h 41mn
Bit rate                                 : 3 500 Kbps
Width                                    : 1 280 pixels
Height                                   : 528 pixels
Display aspect ratio                     : 2.40:1
Frame rate                               : 23.976 fps
Color space                              : YUV
Chroma subsampling                       : 4:2:0
Bit depth                                : 8 bits
Scan type                                : Progressive
Compression mode                         : Lossy
Bits/(Pixel*Frame)                       : 0.216
Stream size                              : 2.49 GiB (84%)
Writing library                          : XviD 1.2.1 (UTC 2008-12-04)

Audio
ID                                       : 1
Format                                   : AC-3
Format/Info                              : Audio Coding 3
Mode extension                           : CM (complete main)
Format settings, Endianness              : Big
Codec ID                                 : 2000
Duration                                 : 1h 41mn
Bit rate mode                            : Constant
Bit rate                                 : 640 Kbps
Channel(s)                               : 6 channels
Channel positions                        : Front: L C R, Side: L R, LFE
Sampling rate                            : 48.0 KHz
Bit depth                                : 16 bits
Compression mode                         : Lossy
Stream size                              : 466 MiB (15%)
Alignment                                : Split accross interleaves
Interleave, duration                     : 42 ms (1.00 video frame)
Interleave, preload duration             : 500 ms

Notes -

Took the BD made a script to make magic happen and this is the outcome.. enjoy

[/code]

Screens:

[img]http://i.imgur.com/PNASq.jpg[/img]
[img]http://i.imgur.com/n4onL.jpg[/img]
[img]http://i.imgur.com/uKc44.jpg[/img]
[img]http://i.imgur.com/0aBlG.jpg[/img]
[img]http://i.imgur.com/BfQWt.jpg[/img]
[img]http://imageshack.us/a/img26/7172/72352807.png[/img]
[img]http://imageshack.us/a/img171/1858/77774407.png[/img]
[img]http://imageshack.us/a/img152/5201/84164354.png[/img]
[img]http://imageshack.us/a/img708/1778/92905349.png[/img]
[img]http://imageshack.us/a/img255/7811/87539830.png[/img]


Greetz:
XtremeEncode|CM8|RX|VISION|HDSCENE|xTriLL|ADTRG|CRYS|REMIXHD|HS|Tommiecook
BIDA|RX|REFILL|INSPiRAL|AXED|HOPE|Anonymous|GooN|NOIR|Blackjesus|Gabroo Punjab Deh
|UNiQUE|RESiSTANCE|TRiNiTY|LEGION

To all the people who have helped me, you know who you are

Anything to offer email us @: 26k@hushmail.me 